<?xml version="1.0" standalone="no"?>
<!DOCTYPE svg PUBLIC "-//W3C//DTD SVG 20010904//EN"
 "http://www.w3.org/TR/2001/REC-SVG-20010904/DTD/svg10.dtd">
<svg version="1.0" xmlns="http://www.w3.org/2000/svg"
 width="1200.000000pt" height="1200.000000pt" viewBox="0 0 1200.000000 1200.000000"
 preserveAspectRatio="xMidYMid meet">

<g transform="translate(0.000000,1200.000000) scale(0.100000,-0.100000)"
fill="#000000" stroke="none">
<path d="M5550 8816 c-239 -139 -615 -356 -835 -484 l-400 -231 0 -976 0 -976
390 -226 c1053 -609 1290 -744 1300 -741 6 2 388 221 848 487 l837 483 0 973
0 973 -837 483 c-460 266 -843 485 -852 486 -9 1 -212 -112 -451 -251z m1232
-364 l757 -437 0 -890 0 -890 -757 -437 c-416 -240 -764 -439 -772 -442 -9 -4
-210 106 -495 271 -264 153 -610 352 -767 443 l-287 165 0 890 0 890 287 165
c157 91 503 290 767 443 285 165 486 275 495 271 8 -3 356 -202 772 -442z"/>
<path d="M5292 7827 c-22 -23 -22 -26 -22 -455 l0 -431 -85 -172 c-83 -168
-85 -172 -85 -244 0 -64 3 -78 24 -102 l24 -28 852 0 852 0 24 28 c21 24 24
38 24 102 0 72 -2 76 -85 244 l-85 172 0 428 c0 418 0 429 -21 455 l-20 26
-688 0 -688 0 -21 -23z m1376 -39 c9 -9 12 -122 12 -445 l0 -433 70 -140 c39
-77 70 -142 70 -145 0 -3 -369 -5 -820 -5 -451 0 -820 2 -820 5 0 3 30 66 67
140 l68 135 535 2 535 3 3 22 3 23 -533 2 -533 3 -3 409 c-1 293 1 413 9 422
16 19 1318 21 1337 2z m182 -1266 c0 -79 74 -72 -855 -70 l-830 3 -3 53 -3 52
845 0 846 0 0 -38z"/>
<path d="M5396 7718 c-14 -19 -16 -69 -16 -345 0 -310 1 -324 20 -343 20 -20
33 -20 600 -20 567 0 580 0 600 20 19 19 20 33 20 343 0 276 -2 326 -16 345
l-15 22 -589 0 -589 0 -15 -22z m1164 -338 l0 -310 -560 0 -560 0 0 310 0 310
560 0 560 0 0 -310z"/>
<path d="M6021 7576 c-25 -26 -23 -56 4 -56 22 0 57 38 53 58 -5 26 -32 25
-57 -2z"/>
<path d="M5935 7477 c-43 -20 -91 -78 -99 -121 -13 -70 25 -150 87 -182 36
-19 114 -21 148 -4 61 32 73 59 40 94 -34 36 -35 67 -5 111 29 43 26 55 -19
88 -32 25 -112 32 -152 14z m118 -57 c4 -3 1 -20 -8 -36 -19 -38 -19 -87 1
-126 19 -37 9 -48 -49 -48 -54 0 -107 52 -107 104 0 63 28 100 90 119 17 6 61
-2 73 -13z"/>
<path d="M6454 6935 c-11 -27 7 -35 75 -35 69 0 101 15 86 40 -10 17 -155 13
-161 -5z"/>
<path d="M5357 6827 c-10 -26 9 -38 54 -35 37 2 45 7 47 26 3 20 0 22 -46 22
-33 0 -52 -5 -55 -13z"/>
<path d="M5526 6831 c-4 -5 -3 -17 0 -26 5 -12 17 -15 53 -13 39 3 46 6 49 26
3 20 0 22 -47 22 -27 0 -52 -4 -55 -9z"/>
<path d="M5694 6825 c-10 -25 9 -37 57 -33 36 2 44 7 44 23 0 17 -8 20 -48 23
-36 2 -49 -1 -53 -13z"/>
<path d="M5864 6825 c-10 -25 9 -37 57 -33 36 2 44 7 44 23 0 17 -8 20 -48 23
-36 2 -49 -1 -53 -13z"/>
<path d="M6034 6825 c-10 -25 9 -37 57 -33 36 2 44 7 44 23 0 17 -8 20 -48 23
-36 2 -49 -1 -53 -13z"/>
<path d="M6204 6825 c-10 -25 9 -37 57 -33 36 2 44 7 44 23 0 17 -8 20 -48 23
-36 2 -49 -1 -53 -13z"/>
<path d="M6372 6818 c3 -20 10 -23 49 -26 36 -2 48 1 53 13 10 27 -2 35 -55
35 -47 0 -50 -2 -47 -22z"/>
<path d="M6542 6818 c2 -19 10 -24 47 -26 45 -3 64 9 54 35 -3 8 -22 13 -55
13 -46 0 -49 -2 -46 -22z"/>
<path d="M5444 6715 c-10 -25 9 -37 57 -33 36 2 44 7 44 23 0 17 -8 20 -48 23
-36 2 -49 -1 -53 -13z"/>
<path d="M5617 6723 c-4 -3 -7 -15 -7 -25 0 -15 8 -18 49 -18 52 0 65 8 55 34
-4 11 -19 16 -48 16 -24 0 -46 -3 -49 -7z"/>
<path d="M5787 6724 c-4 -4 -7 -16 -7 -26 0 -17 13 -18 221 -18 l220 0 -3 23
c-3 22 -4 22 -214 25 -115 1 -213 -1 -217 -4z"/>
<path d="M6286 6715 c-10 -27 2 -35 55 -35 47 0 50 2 47 23 -3 19 -10 22 -49
25 -36 2 -48 -1 -53 -13z"/>
<path d="M6454 6715 c-10 -25 9 -37 57 -33 36 2 44 7 44 23 0 17 -8 20 -48 23
-36 2 -49 -1 -53 -13z"/>
<path d="M10210 4201 l0 -160 -36 24 c-106 72 -251 27 -320 -99 -85 -155 -66
-406 40 -512 81 -82 204 -86 294 -8 37 31 42 33 42 16 0 -48 8 -52 96 -52 l84
0 0 464 0 464 -22 5 c-13 3 -58 9 -100 12 l-78 7 0 -161z m-26 -272 l26 -20 0
-156 0 -155 -31 -29 c-23 -21 -41 -29 -68 -29 -76 0 -105 51 -105 190 -1 108
8 152 40 190 21 25 33 30 69 30 28 0 51 -7 69 -21z"/>
<path d="M9040 4280 l0 -70 100 0 100 0 0 -318 c0 -362 4 -386 70 -446 21 -19
58 -40 82 -47 52 -14 155 -6 220 16 l46 16 -23 67 c-15 45 -27 66 -36 63 -8
-2 -37 -6 -66 -9 -45 -4 -55 -1 -77 21 l-26 26 0 376 0 375 -195 0 -195 0 0
-70z"/>
<path d="M1620 3845 l0 -435 274 0 c151 0 277 3 279 8 3 4 8 40 12 80 l7 72
-186 0 -186 0 0 355 0 355 -100 0 -100 0 0 -435z"/>
<path d="M6750 4263 c0 -10 20 -204 45 -432 25 -228 45 -416 45 -418 0 -1 48
-3 108 -3 l107 0 29 253 c33 302 38 338 42 334 2 -1 15 -115 29 -252 14 -138
28 -269 31 -292 l6 -43 103 0 103 0 6 38 c6 36 96 814 96 826 0 3 -40 6 -88 6
l-89 0 -18 -325 c-11 -179 -22 -325 -25 -325 -3 0 -19 123 -35 273 l-30 272
-87 3 c-49 1 -88 1 -88 0 -1 -2 -16 -128 -34 -281 -19 -153 -36 -280 -38 -282
-4 -4 -29 552 -28 633 l0 32 -95 0 c-84 0 -95 -2 -95 -17z"/>
<path d="M4050 4236 l-85 -11 -3 -72 -3 -73 -69 0 -70 0 0 -70 0 -70 69 0 69
0 4 -192 c3 -174 6 -197 25 -233 47 -89 106 -119 233 -120 82 0 103 4 153 27
31 15 57 30 57 33 0 3 -13 32 -30 64 l-29 59 -38 -14 c-57 -20 -116 -18 -147
7 l-26 20 0 175 0 174 94 0 94 0 6 28 c3 15 8 46 11 70 l7 42 -106 0 -106 0 0
85 c0 62 -3 85 -12 84 -7 -1 -51 -7 -98 -13z"/>
<path d="M2495 4089 c-81 -16 -147 -40 -142 -53 2 -6 12 -35 21 -64 16 -47 20
-52 39 -46 87 28 202 32 247 9 25 -13 50 -60 50 -96 0 -3 -48 -9 -107 -12
-121 -6 -182 -24 -235 -67 -48 -40 -70 -90 -70 -160 0 -70 22 -120 70 -159 83
-69 228 -65 331 9 34 25 43 28 47 15 8 -21 63 -52 110 -63 l41 -9 17 52 c20
65 20 74 -1 98 -16 16 -19 47 -23 216 -6 243 -14 263 -125 312 -57 25 -189 34
-270 18z m215 -422 c0 -31 -6 -61 -16 -75 -36 -52 -136 -70 -174 -32 -20 20
-27 71 -13 105 10 28 82 55 146 55 l57 0 0 -53z"/>
<path d="M3370 4080 c-25 -12 -57 -32 -71 -46 l-27 -25 -6 35 -7 36 -84 0 -85
0 0 -473 0 -473 68 7 c37 5 79 8 95 8 l27 1 0 150 c0 83 3 150 7 150 3 0 14
-7 24 -16 51 -46 150 -55 224 -20 87 40 141 133 153 263 18 190 -25 337 -114
389 -62 36 -144 42 -204 14z m69 -140 c34 -17 51 -83 51 -191 0 -102 -13 -153
-47 -191 -25 -28 -94 -24 -132 8 l-31 26 0 143 0 144 34 35 c27 29 41 36 70
36 21 0 45 -4 55 -10z"/>
<path d="M4778 4087 c-162 -46 -250 -215 -219 -417 20 -125 76 -206 176 -252
71 -33 208 -32 280 0 122 56 176 158 176 332 0 209 -106 335 -293 346 -44 2
-92 -1 -120 -9z m154 -148 c37 -20 58 -85 58 -184 0 -156 -31 -215 -113 -215
-87 0 -118 54 -118 204 -1 103 14 159 48 185 28 23 91 28 125 10z"/>
<path d="M5620 4080 c-25 -12 -57 -32 -71 -46 l-27 -25 -6 35 -7 36 -84 0 -85
0 0 -473 0 -473 68 7 c37 5 79 8 95 8 l27 1 0 150 c0 83 3 150 7 150 3 0 14
-7 24 -16 51 -46 150 -55 224 -20 87 40 141 133 153 263 18 190 -25 337 -114
389 -62 36 -144 42 -204 14z m69 -140 c34 -17 51 -83 51 -191 0 -102 -13 -153
-47 -191 -25 -28 -94 -24 -132 8 l-31 26 0 143 0 144 34 35 c27 29 41 36 70
36 21 0 45 -4 55 -10z"/>
<path d="M7778 4087 c-162 -46 -250 -215 -219 -417 20 -125 76 -206 176 -252
71 -33 208 -32 280 0 122 56 176 158 176 332 0 209 -106 335 -293 346 -44 2
-92 -1 -120 -9z m154 -148 c37 -20 58 -85 58 -184 0 -156 -31 -215 -113 -215
-87 0 -118 54 -118 204 -1 103 14 159 48 185 28 23 91 28 125 10z"/>
<path d="M8768 4086 c-59 -22 -84 -41 -119 -96 l-34 -52 -8 34 c-4 18 -13 50
-18 71 l-10 37 -119 0 -120 0 0 -65 0 -65 45 0 45 0 0 -205 0 -205 -45 0 -45
0 0 -65 0 -65 210 0 210 0 0 65 0 65 -65 0 -65 0 0 106 c0 100 2 110 32 166
30 56 85 108 115 108 9 0 13 -18 13 -60 l0 -60 63 0 63 0 17 137 c10 75 14
140 9 145 -16 16 -135 19 -174 4z"/>
</g>
</svg>
